# xmcd
#
# Track frame offsets:
# 150
# 17823
# 31389
# 49013
# 63290
# 75941
# 94066
# 114187
# 129097
# 147751
# 164330
# 184822
# 198798
# 213191
# 226651
# 245356
#
# Disc length: 4158 seconds
#
#
# Revision: 0
# Processed by: cddbd v1.5PL3 Copyright (c) Steve Scherf et al.
# Submitted via: FreeRIP 2.52 
#
DISCID=bc103c10
DTITLE=Ilse DeLange - World of hurt
DYEAR=1900
DGENRE=Country
TTITLE0=Flying Blind
TTITLE1=Lonely Too
TTITLE2=Just Like The Moon
TTITLE3=What Does Your Heart Say Now
TTITLE4=I'd Be Yours
TTITLE5=World Of hurt
TTITLE6=All The Woman You'll Ever Need
TTITLE7=If You Had The Heart
TTITLE8=Flying Solo
TTITLE9=Old Tears
TTITLE10=I'm Not So Tough
TTITLE11=When We Don't Talk
TTITLE12=Tap Dancing On The Highwire
TTITLE13=You Are The Dream
TTITLE14=It'll Come To You
TTITLE15=Have A Little Faith In Me
EXTD=
EXTT0=
EXTT1=
EXTT2=
EXTT3=
EXTT4=
EXTT5=
EXTT6=
EXTT7=
EXTT8=
EXTT9=
EXTT10=
EXTT11=
EXTT12=
EXTT13=
EXTT14=
EXTT15=
PLAYORDER=
